<svg xmlns="http://www.w3.org/2000/svg" width="16" height="7"><g fill="#414042"><path d="M9.8 7h-.9l-.9-.1c-.7-.3-1.4-.7-1.8-1.3-.2-.1-.3-.3-.3-.5l-.3-.4c-.1-.4-.2-.8-.2-1.2 0-.4.1-.8.2-1.2h1.7c-.3.4-.4.8-.4 1.2 0 .4.1.8.3 1.1.1.2.2.3.4.4.1.1.2.2.4.3.3.2.7.3 1 .3h3.4c1.2 0 2.2-.9 2.2-2.1s-1-2.1-2.2-2.1h-1.4c-.3-.6-.7-1-1.2-1.4h2.6c2 0 3.6 1.6 3.6 3.5s-1.6 3.5-3.6 3.5h-2.6zM8.4 2c-.1-.1-.2-.3-.4-.3-.3-.2-.7-.3-1-.3h-3.4c-1.2 0-2.2.9-2.2 2.1 0 1.2 1 2.1 2.2 2.1h1.4c.3.5.7 1 1.2 1.4h-2.6c-2 0-3.6-1.6-3.6-3.5s1.6-3.5 3.6-3.5h3.5000000000000004l.9.1c.7.2 1.4.7 1.8 1.3.1.1.2.3.3.5.1.1.2.3.2.5.1.4.2.8.2 1.2 0 .4-.1.8-.2 1.2h-1.6c.3-.5.4-.9.4-1.3s-.1-.8-.3-1.1c-.1-.2-.2-.3-.4-.4z"/></g></svg>